<svg xmlns="http://www.w3.org/2000/svg" viewBox="0 0 512 512" role="img" aria-label="Icons Pack Generator">
  <defs>
    <linearGradient id="bg" x1="0" y1="0" x2="1" y2="1">
      <stop offset="0%" stop-color="#38bdf8" />
      <stop offset="100%" stop-color="#22c55e" />
    </linearGradient>
  </defs>
  <rect width="512" height="512" rx="96" fill="url(#bg)" />
  <g fill="#0f172a">
    <path d="M110 168c0-20 16-36 36-36h88c10 0 20 4 27 11l40 40c7 7 17 11 27 11h38c20 0 36 16 36 36v20H110v-82z" />
    <path d="M98 232c0-20 16-36 36-36h244c20 0 36 16 36 36v112c0 28-22 50-50 50H148c-28 0-50-22-50-50V232z" />
  </g>
</svg>
